<svg xmlns="http://www.w3.org/2000/svg" width="25.553" height="28.666" viewBox="0 0 25.553 28.666">
  <g id="Group_164" data-name="Group 164" transform="translate(-1808.223 -121.667)">
    <path id="Path_101" data-name="Path 101" d="M1810.229,146.534,1811.3,133.2l-1.994-.16-1.071,13.334Zm.086.677a1.656,1.656,0,0,1-.086-.677l-1.994-.16a3.678,3.678,0,0,0,.189,1.49Zm.35.586a1.668,1.668,0,0,1-.35-.586l-1.891.653a3.685,3.685,0,0,0,.771,1.289Zm.556.4a1.669,1.669,0,0,1-.556-.4l-1.47,1.356a3.671,3.671,0,0,0,1.224.872Zm.669.14a1.659,1.659,0,0,1-.669-.14l-.8,1.832a3.646,3.646,0,0,0,1.47.308Zm18.221,0h-18.222v2h18.222Zm.668-.14a1.655,1.655,0,0,1-.669.14v2a3.646,3.646,0,0,0,1.47-.308Zm.556-.4a1.659,1.659,0,0,1-.556.4l.8,1.832a3.661,3.661,0,0,0,1.224-.872Zm.35-.586a1.668,1.668,0,0,1-.35.586l1.47,1.356a3.671,3.671,0,0,0,.771-1.289Zm.086-.677a1.656,1.656,0,0,1-.086.677l1.891.653a3.678,3.678,0,0,0,.189-1.49ZM1830.7,133.2l1.07,13.334,1.994-.16-1.071-13.334Zm-.531-1.091a1.669,1.669,0,0,1,.531,1.091l1.993-.16a3.67,3.67,0,0,0-1.168-2.4Zm-1.131-.442a1.669,1.669,0,0,1,1.131.442l1.356-1.47a3.668,3.668,0,0,0-2.487-.972Zm-16.078,0h16.078v-2h-16.078Zm-1.13.442a1.666,1.666,0,0,1,1.13-.442v-2a3.671,3.671,0,0,0-2.488.972Zm-.531,1.091a1.663,1.663,0,0,1,.531-1.091l-1.357-1.47a3.67,3.67,0,0,0-1.168,2.4Zm-2.068,13.254-1-.08Zm2.657,2.879v1h0Zm18.222,0v1h0Zm2.657-2.879,1-.08Zm-1.07-13.334-1,.08Zm-2.659-2.453v1h0Zm-16.078,0v1h0Z" fill="#fff"/>
    <path id="Path_102" data-name="Path 102" d="M1814.667,128v6.667h2V128Zm1.855-4.478a6.33,6.33,0,0,0-1.855,4.478h2a4.337,4.337,0,0,1,1.269-3.064Zm4.478-1.855a6.333,6.333,0,0,0-4.478,1.855l1.414,1.414a4.337,4.337,0,0,1,3.064-1.269Zm4.479,1.855a6.334,6.334,0,0,0-4.479-1.855v2a4.333,4.333,0,0,1,3.064,1.269Zm1.855,4.478a6.334,6.334,0,0,0-1.855-4.478l-1.415,1.414a4.334,4.334,0,0,1,1.27,3.064Zm0,6.667V128h-2v6.667Zm-12.667,0a1,1,0,0,0,2,0Zm1-6.667h0Zm5.333-5.333v0Zm5.334,5.333h0Zm-1,6.667a1,1,0,0,0,2,0Z" fill="#fff"/>
  </g>
</svg>
