<svg xmlns="http://www.w3.org/2000/svg" width="27.041" height="27.04" viewBox="0 0 27.041 27.04">
  <path id="Path_105" data-name="Path 105" d="M180.307,125.693A10.333,10.333,0,0,1,183.334,133h2a12.334,12.334,0,0,0-3.613-8.721ZM173,122.667a10.332,10.332,0,0,1,7.307,3.026l1.414-1.414A12.333,12.333,0,0,0,173,120.667Zm-7.306,3.026A10.33,10.33,0,0,1,173,122.667v-2a12.333,12.333,0,0,0-8.721,3.612ZM162.667,133a10.333,10.333,0,0,1,3.027-7.307l-1.415-1.414A12.333,12.333,0,0,0,160.667,133Zm3.027,7.307A10.335,10.335,0,0,1,162.667,133h-2a12.333,12.333,0,0,0,3.612,8.721ZM173,143.333a10.33,10.33,0,0,1-7.306-3.026l-1.415,1.414A12.333,12.333,0,0,0,173,145.333Zm7.307-3.026A10.332,10.332,0,0,1,173,143.333v2a12.333,12.333,0,0,0,8.721-3.612ZM183.334,133a10.335,10.335,0,0,1-3.027,7.307l1.414,1.414A12.334,12.334,0,0,0,185.334,133Zm-3.023,8.714,5.982,5.993,1.415-1.414-5.981-5.992Zm7.4,4.579-5.981-5.992-1.416,1.413,5.982,5.993ZM173,121.667v0ZM161.667,133h0Z" transform="translate(-160.667 -120.667)" fill="#fff"/>
</svg>
